<?xml version="1.0" standalone="no"?>
<!DOCTYPE svg PUBLIC "-//W3C//DTD SVG 20010904//EN"
 "http://www.w3.org/2000/svg">
<svg version="1.0" xmlns="http://www.w3.org/2000/svg"
 width="626.000000pt" height="626.000000pt" viewBox="0 0 626.000000 626.000000"
 preserveAspectRatio="xMidYMid meet">

<g transform="translate(0.000000,626.000000) scale(0.100000,-0.100000)"
fill="#000000" stroke="none">
<path d="M1640 5646 c-201 -60 -287 -163 -360 -431 -37 -135 -58 -212 -130
-480 -66 -246 -90 -334 -99 -365 -9 -32 -2 -26 82 62 189 199 386 358 612 494
315 189 709 338 1057 399 49 9 98 19 110 24 27 10 51 3 -392 121 -168 45 -388
105 -490 133 -204 55 -310 67 -390 43z"/>
<path d="M5060 5650 c-45 -9 -201 -51 -610 -163 -91 -25 -228 -62 -305 -82
-77 -21 -146 -41 -154 -45 -18 -10 -3 -14 114 -34 107 -19 254 -56 385 -97
517 -164 973 -452 1314 -829 64 -71 64 -73 28 60 -67 247 -136 503 -167 620
-87 323 -101 357 -185 441 -112 112 -271 161 -420 129z"/>
<path d="M3270 5249 c-629 -32 -1224 -240 -1695 -593 -138 -104 -199 -159
-340 -308 -89 -93 -88 -93 -165 -196 -51 -68 -56 -72 -85 -66 -16 3 -34 7 -40
8 -6 0 -12 -61 -15 -161 -6 -202 -15 -215 -65 -105 -35 74 -92 222 -97 247 -3
16 -12 20 -53 23 -28 1 -57 -2 -65 -7 -11 -8 -16 -48 -22 -183 -9 -196 -11
-209 -34 -186 -18 18 -75 146 -105 235 -11 35 -24 65 -27 67 -9 5 -80 -29
-109 -52 -21 -16 -22 -28 -29 -189 -5 -136 -10 -173 -21 -173 -13 0 -45 63
-85 168 -11 29 -23 52 -28 50 -13 -5 -79 -88 -105 -132 -13 -23 -36 -72 -51
-111 -25 -63 -28 -82 -28 -195 0 -117 3 -135 44 -280 23 -85 49 -176 56 -202
21 -78 85 -248 124 -333 135 -291 386 -553 688 -717 53 -28 220 -88 247 -88 7
0 55 -20 106 -44 95 -44 189 -87 244 -112 17 -7 82 -33 145 -58 138 -53 229
-94 215 -97 -58 -9 -369 59 -555 122 -96 33 -184 62 -195 66 -61 20 314 -352
451 -447 382 -266 671 -401 1084 -505 311 -79 749 -114 1056 -86 412 38 779
134 1117 293 48 23 86 44 85 48 -2 3 -30 31 -63 60 -33 30 -75 72 -94 94 l-33
40 103 19 c111 19 147 37 111 56 -11 6 -70 24 -132 41 -173 47 -176 49 -196
176 l-6 41 58 7 c88 11 278 46 286 54 16 16 -13 31 -112 60 -174 51 -215 67
-219 87 -6 34 31 136 53 144 12 4 73 16 137 26 64 9 122 21 129 25 28 17 -1
39 -83 60 -116 31 -116 31 -78 78 60 76 168 154 273 197 116 47 215 58 493 52
286 -6 317 -11 455 -80 51 -26 94 -46 95 -45 13 24 69 187 90 263 118 435 93
854 -78 1275 -246 608 -819 1124 -1537 1383 -214 77 -449 135 -660 162 -105
14 -428 36 -475 33 -11 -1 -85 -4 -165 -9z m-1004 -1127 c34 -11 90 -34 125
-53 84 -44 225 -184 258 -256 23 -49 23 -53 7 -77 -35 -54 -91 -40 -134 35
-72 125 -214 216 -376 241 -89 14 -179 2 -274 -37 -71 -29 -103 -26 -123 11
-34 64 41 118 212 154 67 14 235 4 305 -18z m2779 0 c121 -38 165 -76 145
-126 -16 -44 -52 -50 -123 -21 -240 98 -509 15 -652 -201 -43 -64 -73 -83
-110 -66 -65 30 -28 130 95 252 98 97 212 155 360 184 53 10 226 -3 285 -22z
m-3006 -731 c156 -73 219 -109 270 -151 36 -31 67 -64 69 -74 4 -16 -1 -18
-34 -11 -79 14 -170 61 -307 158 -153 107 -183 129 -225 165 l-27 23 25 -7
c14 -4 117 -50 229 -103z m3111 106 c0 -5 -155 -118 -320 -232 -105 -72 -280
-139 -280 -106 0 5 30 37 68 71 65 60 106 83 347 194 33 15 83 38 110 51 45
21 75 30 75 22z m-1512 -28 c58 -17 96 -62 88 -103 -10 -47 -55 -96 -124 -134
-57 -31 -61 -36 -55 -60 22 -92 82 -172 168 -227 151 -96 348 -64 469 76 47
54 71 109 87 191 14 77 20 90 48 104 30 15 59 7 78 -23 14 -21 14 -31 -1 -111
-36 -199 -166 -346 -355 -403 -61 -18 -89 -21 -165 -16 -160 9 -257 64 -388
219 l-23 28 -45 -57 c-95 -121 -215 -183 -367 -191 -79 -4 -101 -1 -171 22
-97 33 -155 70 -221 142 -102 111 -165 320 -114 376 33 36 97 15 107 -35 21
-107 31 -143 52 -184 101 -191 347 -250 531 -128 63 42 109 103 140 186 l23
60 -46 19 c-60 26 -94 53 -121 98 -54 87 -8 144 132 166 53 8 229 -1 273 -15z
m-1250 -501 c-9 -27 -172 -98 -258 -112 -47 -8 -137 -24 -200 -34 -247 -43
-256 -39 -72 29 329 124 338 126 460 128 55 1 73 -2 70 -11z m2532 -58 c183
-67 290 -110 290 -116 0 -14 -474 73 -537 99 -72 29 -136 71 -125 82 4 4 52 5
107 2 91 -5 115 -11 265 -67z m-2370 14 c0 -23 -36 -136 -55 -173 -21 -41 -83
-133 -173 -256 -16 -22 -48 -66 -71 -98 -24 -32 -45 -56 -48 -53 -11 11 190
432 230 481 59 74 117 123 117 99z m1901 -41 c70 -73 87 -102 191 -328 91
-197 108 -245 73 -199 -87 111 -261 367 -285 418 -31 67 -50 156 -33 156 5 0
29 -21 54 -47z"/>
</g>
</svg>
